<svg id="symmetry_copy" data-name="symmetry copy" xmlns="http://www.w3.org/2000/svg" viewBox="0 0 96.75 78.19"><defs><style>.cls-1{fill:#231f20;stroke:#231f20;stroke-miterlimit:10;stroke-width:0.5px;}</style></defs><title>logo</title><polygon class="cls-1" points="48.4 0.93 48.4 20.19 56.12 33.55 61.67 43.17 67.63 53.49 70.63 58.69 81.74 58.69 76.19 49.06 67.23 33.55 61.67 23.92 48.4 0.93"/><polygon class="cls-1" points="48.4 46.91 48.4 66.17 61.67 43.17 67.23 33.55 80.5 10.56 85.54 1.83 83.99 0.93 74.95 0.93 69.39 10.56 61.67 23.92 56.12 33.55 48.4 46.91"/><polygon class="cls-1" points="67.63 49.06 67.63 53.49 70.63 58.69 96.5 58.69 96.5 49.06 67.63 49.06"/><polygon class="cls-1" points="69.39 10.56 96.5 10.56 96.5 0.93 74.95 0.93 69.39 10.56"/><polygon class="cls-1" points="48.39 77.94 96.5 77.94 96.5 68.31 52.83 68.31 51.6 70.97 49.25 76.08 48.39 77.94"/><polygon class="cls-1" points="48.38 77.91 48.38 77.94 48.39 77.94 48.38 77.91"/><polygon class="cls-1" points="49.25 76.08 51.37 77.94 73.02 77.94 79.92 70.48 67.75 69.35 67.16 68.31 61.77 58.69 57.63 68.31 56.94 69.91 51.6 70.97 49.25 76.08"/><polygon class="cls-1" points="48.35 0.93 48.35 20.19 40.64 33.55 35.08 43.17 29.13 53.49 26.13 58.69 15.01 58.69 20.57 49.06 29.52 33.55 35.08 23.92 48.35 0.93"/><polygon class="cls-1" points="48.35 46.91 48.35 66.17 35.08 43.17 29.52 33.55 16.25 10.56 11.21 1.83 12.76 0.93 21.8 0.93 27.36 10.56 35.08 23.92 40.64 33.55 48.35 46.91"/><polygon class="cls-1" points="29.13 49.06 29.13 53.49 26.13 58.69 0.25 58.69 0.25 49.06 29.13 49.06"/><polygon class="cls-1" points="27.36 10.56 0.25 10.56 0.25 0.93 21.8 0.93 27.36 10.56"/><polygon class="cls-1" points="48.36 77.94 0.25 77.94 0.25 68.31 43.92 68.31 45.15 70.97 47.5 76.08 48.36 77.94"/><polygon class="cls-1" points="48.38 77.91 48.38 77.94 48.36 77.94 48.38 77.91"/><polygon class="cls-1" points="47.5 76.08 45.38 77.94 23.73 77.94 16.83 70.48 29.01 69.35 29.59 68.31 34.98 58.69 39.13 68.31 39.82 69.91 45.15 70.97 47.5 76.08"/></svg>