<svg id="symmetry_copy" data-name="symmetry copy" xmlns="http://www.w3.org/2000/svg" viewBox="0 0 100 100"><defs><style>.cls-1{fill:#71cddd;stroke:#71cddd;stroke-miterlimit:10;stroke-width:0.5px;}</style></defs><title>navico</title><polygon class="cls-1" points="50.02 8.27 50.02 27.53 57.74 40.89 63.3 50.51 69.25 60.83 72.25 66.02 83.37 66.02 77.81 56.4 68.86 40.89 63.3 31.26 50.02 8.27"/><polygon class="cls-1" points="50.02 54.25 50.02 73.5 63.3 50.51 68.86 40.89 82.13 17.9 87.17 9.17 85.61 8.27 76.57 8.27 71.01 17.9 63.3 31.26 57.74 40.89 50.02 54.25"/><polygon class="cls-1" points="69.25 56.4 69.25 60.83 72.25 66.02 98.13 66.02 98.13 56.4 69.25 56.4"/><polygon class="cls-1" points="71.01 17.9 98.13 17.9 98.13 8.27 76.57 8.27 71.01 17.9"/><polygon class="cls-1" points="50.02 85.28 98.13 85.28 98.13 75.65 54.45 75.65 53.22 78.31 50.87 83.42 50.02 85.28"/><polygon class="cls-1" points="50 85.25 50 85.28 50.02 85.28 50 85.25"/><polygon class="cls-1" points="50.87 83.42 52.99 85.28 74.65 85.28 81.54 77.81 69.37 76.69 68.79 75.65 63.4 66.02 59.25 75.65 58.56 77.25 53.22 78.31 50.87 83.42"/><polygon class="cls-1" points="49.98 8.27 49.98 27.53 42.26 40.89 36.7 50.51 30.75 60.83 27.75 66.02 16.63 66.02 22.19 56.4 31.14 40.89 36.7 31.26 49.98 8.27"/><polygon class="cls-1" points="49.98 54.25 49.98 73.5 36.7 50.51 31.14 40.89 17.87 17.9 12.83 9.17 14.39 8.27 23.43 8.27 28.99 17.9 36.7 31.26 42.26 40.89 49.98 54.25"/><polygon class="cls-1" points="30.75 56.4 30.75 60.83 27.75 66.02 1.87 66.02 1.87 56.4 30.75 56.4"/><polygon class="cls-1" points="28.99 17.9 1.87 17.9 1.87 8.27 23.43 8.27 28.99 17.9"/><polygon class="cls-1" points="49.98 85.28 1.87 85.28 1.87 75.65 45.55 75.65 46.78 78.31 49.13 83.42 49.98 85.28"/><polygon class="cls-1" points="50 85.25 50 85.28 49.98 85.28 50 85.25"/><polygon class="cls-1" points="49.13 83.42 47.01 85.28 25.35 85.28 18.46 77.81 30.63 76.69 31.21 75.65 36.6 66.02 40.75 75.65 41.44 77.25 46.78 78.31 49.13 83.42"/></svg>